<?xml version="1.0" encoding="UTF-8" standalone="no"?>
<!-- Created with Inkscape (http://www.inkscape.org/) -->

<svg
   width="1920"
   height="1080"
   viewBox="0 0 507.99999 285.75"
   version="1.1"
   id="svg1"
   inkscape:export-filename="iot web.png"
   inkscape:export-xdpi="96"
   inkscape:export-ydpi="96"
   inkscape:version="1.4.4 (dcaf3e7d9e, 2026-05-05)"
   sodipodi:docname="webconcepts.svg"
   xmlns:inkscape="http://www.inkscape.org/namespaces/inkscape"
   xmlns:sodipodi="http://sodipodi.sourceforge.net/DTD/sodipodi-0.dtd"
   xmlns="http://www.w3.org/2000/svg"
   xmlns:svg="http://www.w3.org/2000/svg">
  <sodipodi:namedview
     id="namedview1"
     pagecolor="#505050"
     bordercolor="#eeeeee"
     borderopacity="1"
     inkscape:showpageshadow="0"
     inkscape:pageopacity="0"
     inkscape:pagecheckerboard="0"
     inkscape:deskcolor="#505050"
     inkscape:document-units="px"
     inkscape:zoom="0.17274511"
     inkscape:cx="1675.8796"
     inkscape:cy="824.91481"
     inkscape:window-width="1890"
     inkscape:window-height="1020"
     inkscape:window-x="0"
     inkscape:window-y="0"
     inkscape:window-maximized="1"
     inkscape:current-layer="layer1" />
  <defs
     id="defs1" />
  <g
     inkscape:label="Layer 1"
     inkscape:groupmode="layer"
     id="layer1">
    <rect
       style="fill:#1e1e2e;stroke:none;stroke-width:1.834;fill-opacity:1"
       id="rect1"
       width="508"
       height="285.75"
       x="0"
       y="0" />
    <rect
       style="fill:#1e1e2e;fill-opacity:1;stroke:none;stroke-width:1.31531"
       id="rect2"
       width="49.536167"
       height="49.741665"
       x="-375.17838"
       y="-35.853043" />
    <rect
       style="fill:#181825;fill-opacity:1;stroke:none;stroke-width:1.31531"
       id="rect3"
       width="49.536167"
       height="49.741665"
       x="-325.64221"
       y="-35.853043" />
    <rect
       style="fill:#11111b;fill-opacity:1;stroke:none;stroke-width:1.31531"
       id="rect4"
       width="49.536167"
       height="49.741665"
       x="-276.10605"
       y="-35.853043" />
    <rect
       style="fill:#cdd6f4;fill-opacity:1;stroke:none;stroke-width:1.31531"
       id="rect5"
       width="49.536167"
       height="49.741665"
       x="-375.69196"
       y="65.43808" />
    <g
       id="g9"
       transform="translate(-2.5819663)">
      <text
         xml:space="preserve"
         style="font-size:26.5909px;line-height:0.8;font-family:'Adwaita Sans';-inkscape-font-specification:'Adwaita Sans, Normal';text-align:center;writing-mode:lr-tb;direction:ltr;text-anchor:middle;fill:#cdd6f4;fill-opacity:1;stroke:none;stroke-width:5.75997"
         x="84.558769"
         y="38.562057"
         id="text5"><tspan
           sodipodi:role="line"
           id="tspan5"
           style="font-style:normal;font-variant:normal;font-weight:normal;font-stretch:normal;font-size:26.5909px;font-family:Impact;-inkscape-font-specification:'Impact, @opsz=32';font-variant-ligatures:normal;font-variant-caps:normal;font-variant-numeric:normal;font-variant-east-asian:normal;font-variation-settings:'opsz' 32;stroke-width:5.75997"
           x="84.558769"
           y="38.562057">Kelompok 8</tspan></text>
      <text
         xml:space="preserve"
         style="font-size:26.5909px;line-height:0.8;font-family:'Adwaita Sans';-inkscape-font-specification:'Adwaita Sans, Normal';text-align:center;writing-mode:lr-tb;direction:ltr;text-anchor:middle;fill:#cdd6f4;fill-opacity:1;stroke:none;stroke-width:5.75997"
         x="113.13796"
         y="60.725216"
         id="text6"><tspan
           sodipodi:role="line"
           id="tspan6"
           style="font-style:normal;font-variant:normal;font-weight:normal;font-stretch:normal;font-size:26.5909px;font-family:Impact;-inkscape-font-specification:'Impact, @opsz=32';font-variant-ligatures:normal;font-variant-caps:normal;font-variant-numeric:normal;font-variant-east-asian:normal;font-variation-settings:'opsz' 32;stroke-width:5.75997"
           x="113.13796"
           y="60.725216">IOT - Peternakan</tspan></text>
    </g>
    <text
       xml:space="preserve"
       style="font-size:42.7897px;line-height:0.8;font-family:'Adwaita Sans';-inkscape-font-specification:'Adwaita Sans, Normal';text-align:center;writing-mode:lr-tb;direction:ltr;text-anchor:middle;fill:#f38ba8;fill-opacity:1;stroke:none;stroke-width:9.26886"
       x="90.462242"
       y="184.45546"
       id="text5-5"><tspan
         sodipodi:role="line"
         id="tspan5-2"
         style="font-style:normal;font-variant:normal;font-weight:normal;font-stretch:normal;font-size:42.7897px;font-family:Impact;-inkscape-font-specification:'Impact, @opsz=32';font-variant-ligatures:normal;font-variant-caps:normal;font-variant-numeric:normal;font-variant-east-asian:normal;font-variation-settings:'opsz' 32;fill:#f38ba8;fill-opacity:1;stroke-width:9.26886"
         x="90.462242"
         y="184.45546">40</tspan></text>
    <text
       xml:space="preserve"
       style="font-size:26.5909px;line-height:0.8;font-family:'Adwaita Sans';-inkscape-font-specification:'Adwaita Sans, Normal';text-align:center;writing-mode:lr-tb;direction:ltr;text-anchor:middle;fill:#cdd6f4;fill-opacity:1;stroke:none;stroke-width:5.75997"
       x="-99.912331"
       y="208.11676"
       id="text6-0"><tspan
         sodipodi:role="line"
         id="tspan6-2"
         style="font-style:normal;font-variant:normal;font-weight:normal;font-stretch:normal;font-size:26.5909px;font-family:Impact;-inkscape-font-specification:'Impact, @opsz=32';font-variant-ligatures:normal;font-variant-caps:normal;font-variant-numeric:normal;font-variant-east-asian:normal;font-variation-settings:'opsz' 32;stroke-width:5.75997"
         x="-99.912331"
         y="208.11676">IOT - Peternakan</tspan></text>
    <rect
       style="fill:#b4befe;fill-opacity:1;stroke:none;stroke-width:1.31531"
       id="rect6"
       width="49.536167"
       height="49.741665"
       x="-326.15579"
       y="65.43808" />
    <rect
       style="fill:#f38ba8;fill-opacity:1;stroke:none;stroke-width:1.31531"
       id="rect7"
       width="49.536167"
       height="49.741665"
       x="-276.61963"
       y="65.43808" />
    <rect
       style="fill:#f9e2af;fill-opacity:1;stroke:none;stroke-width:1.31531"
       id="rect8"
       width="49.536167"
       height="49.741665"
       x="-326.15579"
       y="115.17975" />
    <rect
       style="fill:#a6e3a1;fill-opacity:1;stroke:none;stroke-width:1.31531"
       id="rect9"
       width="49.536167"
       height="49.741665"
       x="-276.61963"
       y="115.17975" />
    <g
       id="g17"
       transform="translate(0,-9.7286107)">
      <rect
         style="fill:none;fill-opacity:1;stroke:#f38ba8;stroke-width:4.46669;stroke-dasharray:none;stroke-opacity:1"
         id="rect10"
         width="104.42356"
         height="71.476746"
         x="20.418573"
         y="133.24796"
         ry="10.294204" />
      <rect
         style="fill:none;fill-opacity:1;stroke:#f9e2af;stroke-width:4.46669;stroke-dasharray:none;stroke-opacity:1"
         id="rect11"
         width="104.42362"
         height="71.476807"
         x="262.26337"
         y="133.90468"
         ry="10.294214" />
      <rect
         style="fill:none;fill-opacity:1;stroke:#a6e3a1;stroke-width:4.46669;stroke-dasharray:none;stroke-opacity:1"
         id="rect12"
         width="104.42362"
         height="71.476807"
         x="383.15781"
         y="133.90468"
         ry="10.294214" />
      <rect
         style="fill:none;fill-opacity:1;stroke:#b4befe;stroke-width:4.46669;stroke-dasharray:none;stroke-opacity:1"
         id="rect13"
         width="104.42356"
         height="71.476738"
         x="141.313"
         y="133.24796"
         ry="10.294204" />
    </g>
    <text
       xml:space="preserve"
       style="font-style:normal;font-variant:normal;font-weight:normal;font-stretch:normal;font-size:11.9557px;line-height:0.8;font-family:Impact;-inkscape-font-specification:'Impact, Normal';font-variant-ligatures:normal;font-variant-caps:normal;font-variant-numeric:normal;font-variant-east-asian:normal;text-align:start;writing-mode:lr-tb;direction:ltr;text-anchor:start;fill:#9399b2;fill-opacity:1;stroke:none;stroke-width:1.85496;stroke-dasharray:none;stroke-opacity:1"
       x="18.890991"
       y="77.609375"
       id="text13"><tspan
         sodipodi:role="line"
         id="tspan13"
         style="font-style:normal;font-variant:normal;font-weight:normal;font-stretch:normal;font-size:11.9557px;font-family:Impact;-inkscape-font-specification:'Impact, Normal';font-variant-ligatures:normal;font-variant-caps:normal;font-variant-numeric:normal;font-variant-east-asian:normal;fill:#9399b2;fill-opacity:1;stroke:none;stroke-width:1.85496"
         x="18.890991"
         y="77.609375">Gelo Impsum, Iki Penjelasan</tspan><tspan
         sodipodi:role="line"
         style="font-style:normal;font-variant:normal;font-weight:normal;font-stretch:normal;font-size:11.9557px;font-family:Impact;-inkscape-font-specification:'Impact, Normal';font-variant-ligatures:normal;font-variant-caps:normal;font-variant-numeric:normal;font-variant-east-asian:normal;fill:#9399b2;fill-opacity:1;stroke:none;stroke-width:1.85496"
         x="18.890991"
         y="87.425003"
         id="tspan14">/ Deskripsi Project</tspan></text>
    <rect
       style="fill:#9399b2;fill-opacity:1;stroke:none;stroke-width:1.31531"
       id="rect14"
       width="49.536167"
       height="49.741665"
       x="-375.69196"
       y="115.17975" />
    <path
       d="m 42.232781,142.71776 v -2.36555 h 5.913866 v 2.36555 z m 0,-4.73109 v -2.36555 h 9.462186 v 2.36555 z m -10.097924,14.82901 q -1.729806,-1.7298 -1.729806,-4.18405 0,-1.41934 0.620956,-2.64645 0.620955,-1.22714 1.744591,-2.08465 v -7.09663 q 0,-1.47847 1.034926,-2.5134 1.034927,-1.03492 2.513394,-1.03492 1.478466,0 2.513393,1.03492 1.034926,1.03493 1.034926,2.5134 v 7.09663 q 1.123633,0.85751 1.744588,2.08465 0.620956,1.22711 0.620956,2.64645 0,2.45425 -1.729806,4.18405 -1.729805,1.72981 -4.184057,1.72981 -2.454256,0 -4.184061,-1.72981 z m 0.635741,-4.18405 h 7.096639 q 0,-0.85751 -0.369619,-1.59675 -0.369614,-0.73923 -1.04971,-1.24191 l -0.946217,-0.70967 v -8.2794 q 0,-0.50268 -0.340048,-0.84273 -0.340049,-0.34005 -0.842725,-0.34005 -0.502681,0 -0.842726,0.34005 -0.340048,0.34005 -0.340048,0.84273 v 8.2794 l -0.946217,0.70967 q -0.680096,0.50268 -1.049712,1.24191 -0.369617,0.73924 -0.369617,1.59675 z"
       id="path1"
       style="fill:#f38ba8;fill-opacity:1;stroke-width:0.0295693" />
    <path
       d="m 159.84601,146.7051 q 0.29313,-0.0245 0.50075,-0.23206 0.20763,-0.20763 0.20763,-0.50076 0,-0.34197 -0.21984,-0.54961 -0.21984,-0.20763 -0.56183,-0.1832 -1.00151,0.0733 -2.12516,-0.54962 -1.12366,-0.62289 -1.41678,-2.25952 -0.0489,-0.2687 -0.25649,-0.43968 -0.20764,-0.171 -0.47633,-0.171 -0.34198,0 -0.56183,0.25649 -0.21985,0.25648 -0.14656,0.59846 0.41526,2.22288 1.95418,3.17555 1.53891,0.95266 3.10226,0.85495 z m -5.85033,0.63511 q -2.23509,-2.29616 -2.23509,-5.71598 0,-2.44272 1.94196,-5.31292 1.94197,-2.8702 5.87475,-6.21673 3.93279,3.34653 5.87475,6.21673 1.94197,2.8702 1.94197,5.31292 0,3.41982 -2.2351,5.71598 -2.23509,2.29616 -5.58162,2.29616 -3.34652,0 -5.58162,-2.29616 z m 9.78311,-1.38014 q 1.66105,-1.72212 1.66105,-4.33584 0,-1.78319 -1.47785,-4.03049 -1.47784,-2.2473 -4.38469,-4.90987 -2.90684,2.66257 -4.38468,4.90987 -1.47785,2.2473 -1.47785,4.03049 0,2.61372 1.66105,4.33584 1.66105,1.72212 4.20148,1.72212 2.54044,0 4.20149,-1.72212 z m -4.20149,-6.09459 z"
       id="path1-8"
       style="fill:#b4befe;fill-opacity:1;stroke-width:0.0244272" />
    <path
       d="m 283.11467,149.86905 q -0.62439,-0.6244 -0.62439,-1.5012 h 4.25119 q 0,0.8768 -0.6244,1.5012 -0.62439,0.62439 -1.5012,0.62439 -0.8768,0 -1.5012,-0.62439 z m -2.74999,-2.564 v -2.12559 h 8.50237 v 2.12559 z m 0.2657,-3.18839 q -1.83332,-1.08936 -2.9094,-2.92269 -1.07608,-1.83333 -1.07608,-3.98548 0,-3.32124 2.32487,-5.64611 2.32486,-2.32487 5.6461,-2.32487 3.32125,0 5.6461,2.32487 2.32488,2.32487 2.32488,5.64611 0,2.15215 -1.07609,3.98548 -1.07608,1.83333 -2.9094,2.92269 z m 0.63768,-2.12559 h 6.69562 q 1.19565,-0.85024 1.84661,-2.09903 0.65097,-1.24878 0.65097,-2.68355 0,-2.44444 -1.70049,-4.14492 -1.70047,-1.70046 -4.1449,-1.70046 -2.44443,0 -4.14491,1.70046 -1.70047,1.70048 -1.70047,4.14492 0,1.43477 0.65096,2.68355 0.65097,1.24879 1.84661,2.09903 z m 3.34781,0 z"
       id="path1-6"
       style="fill:#f9e2af;fill-opacity:1;stroke-width:0.0265698" />
    <path
       d="m 407.26908,140.88253 v -2.03411 h 4.06819 v 2.03411 z m 1.22044,7.11934 -3.25455,-2.44092 1.22046,-1.62728 3.25457,2.44091 z m -2.03409,-12.20461 -1.22046,-1.62727 3.25455,-2.44091 1.22048,1.62728 z m -12.408,7.11936 v -6.10229 h 4.0682 l 5.08525,-5.08525 v 16.27279 l -5.08525,-5.08525 z m 7.11934,-6.25485 -2.18665,2.18665 h -2.89858 v 2.03411 h 2.89858 l 2.18665,2.18665 z m -2.54261,3.2037 z"
       id="path1-9"
       style="fill:#a6e3a1;fill-opacity:1;stroke-width:0.0254261" />
    <rect
       style="fill:#b4befe;fill-opacity:1;stroke:none;stroke-width:2.99505;stroke-dasharray:none;stroke-opacity:0"
       id="rect17"
       width="226.02779"
       height="32.035778"
       x="19.682755"
       y="208.11676"
       ry="4.6138477" />
    <rect
       style="fill:#f9e2af;fill-opacity:1;stroke:none;stroke-width:2.99505;stroke-dasharray:none;stroke-opacity:1"
       id="rect18"
       width="226.02786"
       height="32.035805"
       x="262.2894"
       y="208.4111"
       ry="4.613853" />
    <rect
       style="fill:#a6e3a1;fill-opacity:1;stroke:none;stroke-width:2.99505;stroke-dasharray:none;stroke-opacity:1"
       id="rect21"
       width="226.02779"
       height="32.035778"
       x="19.682755"
       y="246.54338"
       ry="4.6138477" />
    <rect
       style="fill:#f38ba8;fill-opacity:1;stroke:none;stroke-width:2.99505;stroke-dasharray:none;stroke-opacity:1"
       id="rect22"
       width="226.02786"
       height="32.035805"
       x="262.2894"
       y="246.83772"
       ry="4.613853" />
    <path
       d="m 282.75718,263.87268 v -2.03411 h 4.06819 v 2.03411 z m 1.22044,7.11934 -3.25455,-2.44092 1.22046,-1.62728 3.25457,2.44091 z m -2.03409,-12.20461 -1.22046,-1.62727 3.25455,-2.44091 1.22048,1.62728 z m -12.408,7.11936 v -6.10229 h 4.0682 l 5.08525,-5.08525 v 16.27279 l -5.08525,-5.08525 z m 7.11934,-6.25485 -2.18665,2.18665 h -2.89858 v 2.03411 h 2.89858 l 2.18665,2.18665 z m -2.54261,3.2037 z"
       id="path22"
       style="fill:#1e1e2e;fill-opacity:1;stroke-width:0.0254261" />
    <path
       d="m 275.14369,234.43258 q -0.62439,-0.6244 -0.62439,-1.5012 h 4.25119 q 0,0.8768 -0.6244,1.5012 -0.62439,0.62439 -1.50119,0.62439 -0.8768,0 -1.50121,-0.62439 z m -2.74999,-2.564 v -2.12559 h 8.50237 v 2.12559 z m 0.2657,-3.18839 q -1.83332,-1.08936 -2.9094,-2.92269 -1.07608,-1.83333 -1.07608,-3.98548 0,-3.32124 2.32487,-5.64611 2.32486,-2.32487 5.6461,-2.32487 3.32125,0 5.6461,2.32487 2.32488,2.32487 2.32488,5.64611 0,2.15215 -1.07609,3.98548 -1.07608,1.83333 -2.9094,2.92269 z m 0.63768,-2.12559 h 6.69562 q 1.19565,-0.85024 1.84661,-2.09903 0.65097,-1.24878 0.65097,-2.68355 0,-2.44444 -1.70049,-4.14492 -1.70047,-1.70046 -4.1449,-1.70046 -2.44443,0 -4.14491,1.70046 -1.70047,1.70048 -1.70047,4.14492 0,1.43477 0.65096,2.68355 0.65097,1.24879 1.84661,2.09903 z m 3.34781,0 z"
       id="path23"
       style="fill:#1e1e2e;fill-opacity:1;stroke-width:0.0265698" />
    <path
       d="m 36.015541,269.40089 q 0.29313,-0.0245 0.50075,-0.23206 0.20763,-0.20763 0.20763,-0.50076 0,-0.34197 -0.21984,-0.54961 -0.21984,-0.20763 -0.56183,-0.1832 -1.00151,0.0733 -2.12516,-0.54962 -1.12366,-0.62289 -1.41678,-2.25952 -0.0489,-0.2687 -0.25649,-0.43968 -0.20764,-0.171 -0.47633,-0.171 -0.34198,0 -0.56183,0.25649 -0.21985,0.25648 -0.14656,0.59846 0.41526,2.22288 1.95418,3.17555 1.53891,0.95266 3.10226,0.85495 z m -5.85033,0.63511 q -2.23509,-2.29616 -2.23509,-5.71598 0,-2.44272 1.94196,-5.31292 1.94197,-2.8702 5.87475,-6.21673 3.93279,3.34653 5.87475,6.21673 1.94197,2.8702 1.94197,5.31292 0,3.41982 -2.2351,5.71598 -2.23509,2.29616 -5.58162,2.29616 -3.34652,0 -5.58162,-2.29616 z m 9.78311,-1.38014 q 1.66105,-1.72212 1.66105,-4.33584 0,-1.78319 -1.47785,-4.03049 -1.47784,-2.2473 -4.38469,-4.90987 -2.90684,2.66257 -4.38468,4.90987 -1.47785,2.2473 -1.47785,4.03049 0,2.61372 1.66105,4.33584 1.66105,1.72212 4.20148,1.72212 2.54044,0 4.20149,-1.72212 z m -4.20149,-6.09459 z"
       id="path24"
       style="fill:#1e1e2e;fill-opacity:1;stroke-width:0.0244272" />
    <path
       d="m 41.067472,222.95187 v -2.36555 h 5.913866 v 2.36555 z m 0,-4.73109 v -2.36555 h 9.462186 v 2.36555 z m -10.097924,14.82901 q -1.729806,-1.7298 -1.729806,-4.18405 0,-1.41934 0.620956,-2.64645 0.620955,-1.22714 1.744591,-2.08465 v -7.09663 q 0,-1.47847 1.034926,-2.5134 1.034927,-1.03492 2.513394,-1.03492 1.478466,0 2.513393,1.03492 1.034926,1.03493 1.034926,2.5134 v 7.09663 q 1.123633,0.85751 1.744588,2.08465 0.620956,1.22711 0.620956,2.64645 0,2.45425 -1.729806,4.18405 -1.729805,1.72981 -4.184057,1.72981 -2.454256,0 -4.184061,-1.72981 z m 0.635741,-4.18405 h 7.096639 q 0,-0.85751 -0.369619,-1.59675 -0.369614,-0.73923 -1.04971,-1.24191 l -0.946217,-0.70967 v -8.2794 q 0,-0.50268 -0.340048,-0.84273 -0.340049,-0.34005 -0.842725,-0.34005 -0.502681,0 -0.842726,0.34005 -0.340048,0.34005 -0.340048,0.84273 v 8.2794 l -0.946217,0.70967 q -0.680096,0.50268 -1.049712,1.24191 -0.369617,0.73924 -0.369617,1.59675 z"
       id="path25"
       style="fill:#1e1e2e;fill-opacity:1;stroke-width:0.0295693" />
    <path
       d="m 452.99978,23.575138 -4.74625,-4.746249 1.32895,-1.376413 2.46805,2.46805 v -7.736385 h 1.8985 v 7.736385 l 2.46805,-2.46805 1.32895,1.376413 z m -5.6955,3.797 q -0.78313,0 -1.34081,-0.557684 -0.55769,-0.557684 -0.55769,-1.340816 v -2.847749 h 1.8985 v 2.847749 h 11.391 v -2.847749 h 1.8985 v 2.847749 q 0,0.783132 -0.55768,1.340816 -0.55769,0.557684 -1.34082,0.557684 z"
       id="path1-0"
       style="fill:#b4befe;fill-opacity:1;stroke-width:0.0237312" />
    <path
       d="m 475.24019,22.414784 q -1.08762,0 -1.86213,-0.774516 -0.77452,-0.774513 -0.77452,-1.86213 0,-1.087615 0.77452,-1.862127 0.77451,-0.774516 1.86213,-0.774516 1.08762,0 1.86213,0.774516 0.77452,0.774512 0.77452,1.862127 0,1.087617 -0.77452,1.86213 -0.77451,0.774516 -1.86213,0.774516 z m 7.90991,0 q -1.08758,0 -1.8621,-0.774516 -0.77451,-0.774513 -0.77451,-1.86213 0,-1.087615 0.77451,-1.862127 0.77452,-0.774516 1.8621,-0.774516 1.08762,0 1.86214,0.774516 0.77451,0.774512 0.77451,1.862127 0,1.087617 -0.77451,1.86213 -0.77452,0.774516 -1.86214,0.774516 z m 7.90995,0 q -1.08762,0 -1.86213,-0.774516 -0.77452,-0.774513 -0.77452,-1.86213 0,-1.087615 0.77452,-1.862127 0.77451,-0.774516 1.86213,-0.774516 1.08762,0 1.86214,0.774516 0.77451,0.774512 0.77451,1.862127 0,1.087617 -0.77451,1.86213 -0.77452,0.774516 -1.86214,0.774516 z"
       id="path1-3"
       style="fill:#b4befe;fill-opacity:1;stroke-width:0.032958" />
    <text
       xml:space="preserve"
       style="font-size:42.7897px;line-height:0.8;font-family:'Adwaita Sans';-inkscape-font-specification:'Adwaita Sans, Normal';text-align:center;writing-mode:lr-tb;direction:ltr;text-anchor:middle;fill:#b4befe;fill-opacity:1;stroke:none;stroke-width:9.26886"
       x="203.18375"
       y="184.45546"
       id="text25"><tspan
         sodipodi:role="line"
         id="tspan25"
         style="font-style:normal;font-variant:normal;font-weight:normal;font-stretch:normal;font-size:42.7897px;font-family:Impact;-inkscape-font-specification:'Impact, @opsz=32';font-variant-ligatures:normal;font-variant-caps:normal;font-variant-numeric:normal;font-variant-east-asian:normal;font-variation-settings:'opsz' 32;fill:#b4befe;fill-opacity:1;stroke-width:9.26886"
         x="203.18375"
         y="184.45546">140</tspan></text>
    <text
       xml:space="preserve"
       style="font-style:normal;font-variant:normal;font-weight:normal;font-stretch:normal;font-size:16.3445px;line-height:0.8;font-family:Impact;-inkscape-font-specification:'Impact, @opsz=32';font-variant-ligatures:normal;font-variant-caps:normal;font-variant-numeric:normal;font-variant-east-asian:normal;font-variation-settings:'opsz' 32;text-align:center;writing-mode:lr-tb;direction:ltr;text-anchor:middle;fill:#f38ba8;fill-opacity:1;stroke:none;stroke-width:9.26886"
       x="90.462242"
       y="143.90053"
       id="text26"><tspan
         sodipodi:role="line"
         id="tspan26"
         style="font-style:normal;font-variant:normal;font-weight:normal;font-stretch:normal;font-size:16.3445px;font-family:Impact;-inkscape-font-specification:'Impact, @opsz=32';font-variant-ligatures:normal;font-variant-caps:normal;font-variant-numeric:normal;font-variant-east-asian:normal;font-variation-settings:'opsz' 32;fill:#f38ba8;fill-opacity:1;stroke-width:9.26886"
         x="90.462242"
         y="143.90053">Celcius</tspan></text>
    <text
       xml:space="preserve"
       style="font-style:normal;font-variant:normal;font-weight:normal;font-stretch:normal;font-size:13.5422px;line-height:0.8;font-family:Impact;-inkscape-font-specification:'Impact, @opsz=32';font-variant-ligatures:normal;font-variant-caps:normal;font-variant-numeric:normal;font-variant-east-asian:normal;font-variation-settings:'opsz' 32;text-align:center;writing-mode:lr-tb;direction:ltr;text-anchor:middle;fill:#b4befe;fill-opacity:1;stroke:none;stroke-width:7.67968"
       x="207.57498"
       y="141.96881"
       id="text27"><tspan
         sodipodi:role="line"
         id="tspan27"
         style="font-style:normal;font-variant:normal;font-weight:normal;font-stretch:normal;font-size:13.5422px;font-family:Impact;-inkscape-font-specification:'Impact, @opsz=32';font-variant-ligatures:normal;font-variant-caps:normal;font-variant-numeric:normal;font-variant-east-asian:normal;font-variation-settings:'opsz' 32;fill:#b4befe;fill-opacity:1;stroke-width:7.67968"
         x="207.57498"
         y="141.96881">Gelo Ipsum</tspan></text>
    <text
       xml:space="preserve"
       style="font-size:42.7897px;line-height:0.8;font-family:'Adwaita Sans';-inkscape-font-specification:'Adwaita Sans, Normal';text-align:center;writing-mode:lr-tb;direction:ltr;text-anchor:middle;fill:#f9e2af;fill-opacity:1;stroke:none;stroke-width:9.26886"
       x="334.45801"
       y="184.45546"
       id="text28"><tspan
         sodipodi:role="line"
         id="tspan28"
         style="font-style:normal;font-variant:normal;font-weight:normal;font-stretch:normal;font-size:42.7897px;font-family:Impact;-inkscape-font-specification:'Impact, @opsz=32';font-variant-ligatures:normal;font-variant-caps:normal;font-variant-numeric:normal;font-variant-east-asian:normal;font-variation-settings:'opsz' 32;fill:#f9e2af;fill-opacity:1;stroke-width:9.26886"
         x="334.45801"
         y="184.45546">32</tspan></text>
    <text
       xml:space="preserve"
       style="font-size:42.7897px;line-height:0.8;font-family:'Adwaita Sans';-inkscape-font-specification:'Adwaita Sans, Normal';text-align:center;writing-mode:lr-tb;direction:ltr;text-anchor:middle;fill:#a6e3a1;fill-opacity:1;stroke:none;stroke-width:9.26886"
       x="445.06284"
       y="184.45546"
       id="text29"><tspan
         sodipodi:role="line"
         id="tspan29"
         style="font-style:normal;font-variant:normal;font-weight:normal;font-stretch:normal;font-size:42.7897px;font-family:Impact;-inkscape-font-specification:'Impact, @opsz=32';font-variant-ligatures:normal;font-variant-caps:normal;font-variant-numeric:normal;font-variant-east-asian:normal;font-variation-settings:'opsz' 32;fill:#a6e3a1;fill-opacity:1;stroke-width:9.26886"
         x="445.06284"
         y="184.45546">128</tspan></text>
    <text
       xml:space="preserve"
       style="font-style:normal;font-variant:normal;font-weight:normal;font-stretch:normal;font-size:19.8667px;line-height:0.8;font-family:Impact;-inkscape-font-specification:'Impact, @opsz=32';font-variant-ligatures:normal;font-variant-caps:normal;font-variant-numeric:normal;font-variant-east-asian:normal;font-variation-settings:'opsz' 32;text-align:center;writing-mode:lr-tb;direction:ltr;text-anchor:middle;fill:#f9e2af;fill-opacity:1;stroke:none;stroke-width:11.2663"
       x="326.63626"
       y="146.80888"
       id="text30"><tspan
         sodipodi:role="line"
         id="tspan30"
         style="font-style:normal;font-variant:normal;font-weight:normal;font-stretch:normal;font-size:19.8667px;font-family:Impact;-inkscape-font-specification:'Impact, @opsz=32';font-variant-ligatures:normal;font-variant-caps:normal;font-variant-numeric:normal;font-variant-east-asian:normal;font-variation-settings:'opsz' 32;fill:#f9e2af;fill-opacity:1;stroke-width:11.2663"
         x="326.63626"
         y="146.80888">luts</tspan></text>
    <text
       xml:space="preserve"
       style="font-style:normal;font-variant:normal;font-weight:normal;font-stretch:normal;font-size:13.6749px;line-height:0.8;font-family:Impact;-inkscape-font-specification:'Impact, @opsz=32';font-variant-ligatures:normal;font-variant-caps:normal;font-variant-numeric:normal;font-variant-east-asian:normal;font-variation-settings:'opsz' 32;text-align:center;writing-mode:lr-tb;direction:ltr;text-anchor:middle;fill:#a6e3a1;fill-opacity:1;stroke:none;stroke-width:7.7549"
       x="446.88354"
       y="144.65852"
       id="text31"><tspan
         sodipodi:role="line"
         id="tspan31"
         style="font-style:normal;font-variant:normal;font-weight:normal;font-stretch:normal;font-size:13.6749px;font-family:Impact;-inkscape-font-specification:'Impact, @opsz=32';font-variant-ligatures:normal;font-variant-caps:normal;font-variant-numeric:normal;font-variant-east-asian:normal;font-variation-settings:'opsz' 32;fill:#a6e3a1;fill-opacity:1;stroke-width:7.7549"
         x="446.88354"
         y="144.65852">Gelo Ipsum</tspan></text>
    <rect
       style="font-variation-settings:'opsz' 32;fill:#b4befe;fill-opacity:1;stroke:none;stroke-width:7.57997;stroke-dasharray:none;stroke-opacity:0"
       id="rect31"
       width="52.298828"
       height="47.327301"
       x="32.947544"
       y="299.12915"
       ry="7.7470279" />
    <rect
       style="font-variation-settings:'opsz' 32;fill:#a6e3a1;fill-opacity:1;stroke:none;stroke-width:7.57997;stroke-dasharray:none;stroke-opacity:0"
       id="rect32"
       width="52.298828"
       height="47.327301"
       x="103.2794"
       y="299.12915"
       ry="7.7470279" />
    <rect
       style="font-variation-settings:'opsz' 32;fill:#f9e2af;fill-opacity:1;stroke:none;stroke-width:7.57997;stroke-dasharray:none;stroke-opacity:0"
       id="rect33"
       width="52.298828"
       height="47.327301"
       x="173.61124"
       y="299.12915"
       ry="7.7470279" />
    <rect
       style="font-variation-settings:'opsz' 32;fill:#f38ba8;fill-opacity:1;stroke:none;stroke-width:7.57997;stroke-dasharray:none;stroke-opacity:0"
       id="rect34"
       width="52.298828"
       height="47.327301"
       x="243.94307"
       y="299.12915"
       ry="7.7470279" />
    <text
       xml:space="preserve"
       style="font-style:normal;font-variant:normal;font-weight:normal;font-stretch:normal;font-size:32.6892px;line-height:0.8;font-family:Impact;-inkscape-font-specification:'Impact, @opsz=32';font-variant-ligatures:normal;font-variant-caps:normal;font-variant-numeric:normal;font-variant-east-asian:normal;font-variation-settings:'opsz' 32;text-align:center;writing-mode:lr-tb;direction:ltr;text-anchor:middle;fill:#1e1e2e;fill-opacity:1;stroke:none;stroke-width:10.068;stroke-dasharray:none;stroke-opacity:0"
       x="58.966183"
       y="334.21768"
       id="text34"><tspan
         sodipodi:role="line"
         id="tspan34"
         style="fill:#1e1e2e;fill-opacity:1;stroke-width:10.068"
         x="58.966183"
         y="334.21768">0</tspan></text>
    <text
       xml:space="preserve"
       style="font-style:normal;font-variant:normal;font-weight:normal;font-stretch:normal;font-size:13.8174px;line-height:0.8;font-family:Impact;-inkscape-font-specification:'Impact, @opsz=32';font-variant-ligatures:normal;font-variant-caps:normal;font-variant-numeric:normal;font-variant-east-asian:normal;font-variation-settings:'opsz' 32;text-align:center;writing-mode:lr-tb;direction:ltr;text-anchor:middle;fill:#1e1e2e;fill-opacity:1;stroke:none;stroke-width:4.25563;stroke-dasharray:none;stroke-opacity:0"
       x="129.53935"
       y="327.6358"
       id="text35"><tspan
         sodipodi:role="line"
         id="tspan35"
         style="fill:#1e1e2e;fill-opacity:1;stroke-width:4.25563"
         x="129.53935"
         y="327.6358">Rendah</tspan></text>
    <text
       xml:space="preserve"
       style="font-style:normal;font-variant:normal;font-weight:normal;font-stretch:normal;font-size:13.8174px;line-height:0.8;font-family:Impact;-inkscape-font-specification:'Impact, @opsz=32';font-variant-ligatures:normal;font-variant-caps:normal;font-variant-numeric:normal;font-variant-east-asian:normal;font-variation-settings:'opsz' 32;text-align:center;writing-mode:lr-tb;direction:ltr;text-anchor:middle;fill:#1e1e2e;fill-opacity:1;stroke:none;stroke-width:4.25563;stroke-dasharray:none;stroke-opacity:0"
       x="199.87119"
       y="327.6358"
       id="text36"><tspan
         sodipodi:role="line"
         id="tspan36"
         style="fill:#1e1e2e;fill-opacity:1;stroke-width:4.25563"
         x="199.87119"
         y="327.6358">Sedang</tspan></text>
    <text
       xml:space="preserve"
       style="font-style:normal;font-variant:normal;font-weight:normal;font-stretch:normal;font-size:13.8174px;line-height:0.8;font-family:Impact;-inkscape-font-specification:'Impact, @opsz=32';font-variant-ligatures:normal;font-variant-caps:normal;font-variant-numeric:normal;font-variant-east-asian:normal;font-variation-settings:'opsz' 32;text-align:center;writing-mode:lr-tb;direction:ltr;text-anchor:middle;fill:#1e1e2e;fill-opacity:1;stroke:none;stroke-width:4.25563;stroke-dasharray:none;stroke-opacity:0"
       x="270.32739"
       y="327.6358"
       id="text37"><tspan
         sodipodi:role="line"
         id="tspan37"
         style="fill:#1e1e2e;fill-opacity:1;stroke-width:4.25563"
         x="270.32739"
         y="327.6358">Tinggi</tspan></text>
    <text
       xml:space="preserve"
       style="font-style:normal;font-variant:normal;font-weight:normal;font-stretch:normal;font-size:21.7131px;line-height:0.8;font-family:Impact;-inkscape-font-specification:'Impact, @opsz=32';font-variant-ligatures:normal;font-variant-caps:normal;font-variant-numeric:normal;font-variant-east-asian:normal;font-variation-settings:'opsz' 32;text-align:center;writing-mode:lr-tb;direction:ltr;text-anchor:middle;fill:#1e1e2e;fill-opacity:1;stroke:none;stroke-width:6.68743;stroke-dasharray:none;stroke-opacity:0"
       x="136.55879"
       y="231.72337"
       id="text38"><tspan
         sodipodi:role="line"
         id="tspan38"
         style="stroke-width:6.68744"
         x="136.55879"
         y="231.72337">Tidak Ada Nilai</tspan></text>
    <text
       xml:space="preserve"
       style="font-style:normal;font-variant:normal;font-weight:normal;font-stretch:normal;font-size:21.7131px;line-height:0.8;font-family:Impact;-inkscape-font-specification:'Impact, @opsz=32';font-variant-ligatures:normal;font-variant-caps:normal;font-variant-numeric:normal;font-variant-east-asian:normal;font-variation-settings:'opsz' 32;text-align:start;writing-mode:lr-tb;direction:ltr;text-anchor:start;fill:#1e1e2e;fill-opacity:1;stroke:none;stroke-width:6.68743;stroke-dasharray:none;stroke-opacity:0"
       x="69.845268"
       y="270.14999"
       id="text39"><tspan
         sodipodi:role="line"
         id="tspan39"
         style="stroke-width:6.68744"
         x="69.845268"
         y="270.14999">Rendah</tspan></text>
    <text
       xml:space="preserve"
       style="font-style:normal;font-variant:normal;font-weight:normal;font-stretch:normal;font-size:21.7131px;line-height:0.8;font-family:Impact;-inkscape-font-specification:'Impact, @opsz=32';font-variant-ligatures:normal;font-variant-caps:normal;font-variant-numeric:normal;font-variant-east-asian:normal;font-variation-settings:'opsz' 32;text-align:start;writing-mode:lr-tb;direction:ltr;text-anchor:start;fill:#1e1e2e;fill-opacity:1;stroke:none;stroke-width:6.68743;stroke-dasharray:none;stroke-opacity:0"
       x="302.77133"
       y="231.72337"
       id="text40"><tspan
         sodipodi:role="line"
         id="tspan40"
         style="stroke-width:6.68744"
         x="302.77133"
         y="231.72337">Sedang</tspan></text>
    <text
       xml:space="preserve"
       style="font-style:normal;font-variant:normal;font-weight:normal;font-stretch:normal;font-size:21.7131px;line-height:0.8;font-family:Impact;-inkscape-font-specification:'Impact, @opsz=32';font-variant-ligatures:normal;font-variant-caps:normal;font-variant-numeric:normal;font-variant-east-asian:normal;font-variation-settings:'opsz' 32;text-align:start;writing-mode:lr-tb;direction:ltr;text-anchor:start;fill:#1e1e2e;fill-opacity:1;stroke:none;stroke-width:6.68743;stroke-dasharray:none;stroke-opacity:0"
       x="302.77136"
       y="270.14999"
       id="text41"><tspan
         sodipodi:role="line"
         id="tspan41"
         style="stroke-width:6.68744"
         x="302.77136"
         y="270.14999">Tinggi</tspan></text>
  </g>
</svg>
